<svg width="20" height="21" viewBox="0 0 20 21" fill="none" xmlns="http://www.w3.org/2000/svg">
<path d="M9.16667 6.15853C9.16667 7.04258 8.81548 7.89043 8.19036 8.51555C7.56523 9.14067 6.71739 9.49186 5.83333 9.49186C4.94928 9.49186 4.10143 9.14067 3.47631 8.51555C2.85119 7.89043 2.5 7.04258 2.5 6.15853C2.5 5.27447 2.85119 4.42663 3.47631 3.80151C4.10143 3.17638 4.94928 2.8252 5.83333 2.8252M9.16667 6.15853C9.16667 5.27447 8.81548 4.42663 8.19036 3.80151C7.56523 3.17638 6.71739 2.8252 5.83333 2.8252M9.16667 6.15853H5.83333V2.8252M7.5 14.4919V17.8252M14.1667 11.9919V17.8252M10.8333 11.1585V17.8252M17.5 10.3252V17.8252" stroke="white" stroke-width="2" stroke-linecap="round" stroke-linejoin="round"/>
</svg>
