<svg width="17" height="16" viewBox="0 0 17 16" fill="none" xmlns="http://www.w3.org/2000/svg">
<path d="M8.47237 15.8275C6.37325 15.8275 4.35985 14.9937 2.87563 13.5096C1.39132 12.0254 0.557373 10.0125 0.557373 7.91375C0.557373 5.81495 1.39132 3.80188 2.87563 2.31789C4.36007 0.833812 6.37325 -1.90735e-06 8.47237 -1.90735e-06C10.5715 -1.90735e-06 12.5849 0.833812 14.0691 2.31789C15.5534 3.80209 16.3874 5.81495 16.3874 7.91375C16.3848 10.0118 15.5502 12.0235 14.0663 13.5068C12.5825 14.9904 10.5706 15.825 8.47237 15.8275ZM11.5247 5.87835V5.87822C11.6635 5.74417 11.7426 5.56003 11.7443 5.36708C11.746 5.17413 11.6701 4.98854 11.5336 4.85208C11.3971 4.71561 11.2115 4.63974 11.0185 4.64143C10.8255 4.64311 10.6414 4.72224 10.5073 4.86099L8.47237 6.89633L6.43745 4.86099C6.25472 4.68454 5.99247 4.61746 5.74734 4.68466C5.50232 4.75187 5.31092 4.94325 5.2437 5.18823C5.17648 5.43332 5.24357 5.69552 5.42005 5.87823L7.45497 7.91357L5.42005 9.94891C5.28128 10.083 5.20214 10.2671 5.20045 10.4601C5.19876 10.653 5.27465 10.8386 5.41113 10.9751C5.54762 11.1115 5.73324 11.1874 5.92622 11.1857C6.11919 11.184 6.30336 11.1049 6.43745 10.9661L8.47237 8.93081L10.5073 10.9661C10.6414 11.1049 10.8255 11.184 11.0185 11.1857C11.2115 11.1874 11.3971 11.1115 11.5336 10.9751C11.6701 10.8386 11.746 10.653 11.7443 10.4601C11.7426 10.2671 11.6635 10.083 11.5247 9.94891L9.48976 7.91357L11.5247 5.87835Z" fill="#E6E6E6"/>
</svg>
