<svg width="17" height="19" viewBox="0 0 17 19" fill="none" xmlns="http://www.w3.org/2000/svg">
<path d="M2.19825 3.48405H2.20919H13.9949H14.0059L14.0049 3.49495L12.8263 16.6877C12.8263 16.6878 12.8263 16.6878 12.8263 16.6878L12.8263 16.6878L12.8163 16.6869C12.8046 16.8293 12.7396 16.962 12.6344 17.0587C12.5291 17.1553 12.3914 17.2087 12.2485 17.2083H3.95562C3.81275 17.2087 3.67497 17.1553 3.56974 17.0587C3.4645 16.962 3.39953 16.8293 3.38777 16.6869L2.19825 3.48405ZM2.19825 3.48405L2.19922 3.49495L3.37779 16.6877L2.19825 3.48405ZM12.094 2.35721L12.0887 2.36121H12.1021H15.8163C15.8895 2.36121 15.9596 2.39026 16.0113 2.44197C16.063 2.49367 16.092 2.5638 16.092 2.63692V3.20835C16.092 3.28147 16.063 3.3516 16.0113 3.4033C15.9596 3.45501 15.8895 3.48405 15.8163 3.48405H15.1413V3.38137L15.1314 3.49317L13.9457 16.7896C13.9075 17.2134 13.7122 17.6076 13.3982 17.8948C13.0841 18.1819 12.674 18.3411 12.2485 18.3412H3.95562C3.5301 18.3411 3.11998 18.1819 2.80592 17.8948C2.49186 17.6076 2.29657 17.2134 2.25845 16.7896L1.07274 3.49317L1.17501 3.48405H1.06277H0.387765C0.314644 3.48405 0.244517 3.45501 0.192813 3.4033C0.141108 3.3516 0.112061 3.28147 0.112061 3.20835V2.63692C0.112061 2.5638 0.141108 2.49367 0.192813 2.44197C0.244517 2.39026 0.314644 2.36121 0.387765 2.36121H4.10205V2.36789L4.11006 2.35721L5.31006 0.757211C5.46881 0.545547 5.67466 0.37375 5.9113 0.255426C6.14795 0.137102 6.4089 0.0755005 6.67348 0.0755005H9.53062C9.7952 0.0755005 10.0561 0.137102 10.2928 0.255426C10.5294 0.37375 10.7353 0.545547 10.894 0.757211L12.094 2.35721ZM6.20835 1.43089L6.20833 1.43091L5.52261 2.3452L5.5106 2.36121H5.53062H10.6735H10.6935L10.6815 2.3452L9.99577 1.43091L9.99575 1.43089C9.94141 1.35889 9.87115 1.30044 9.79046 1.2601C9.70978 1.21975 9.62086 1.19862 9.53065 1.19834H9.53062H6.67348H6.67345C6.58324 1.19862 6.49432 1.21975 6.41364 1.2601C6.33296 1.30044 6.2627 1.35889 6.20835 1.43089Z" fill="white" stroke="white" stroke-width="0.0200195"/>
</svg>
