<svg width="20" height="20" viewBox="0 0 20 20" fill="none" xmlns="http://www.w3.org/2000/svg">
<path d="M16.6667 14.1667V9.54346V9.54285C16.6667 9.09798 16.6667 8.87542 16.6126 8.66832C16.5646 8.4847 16.4856 8.31057 16.379 8.15354C16.2587 7.97635 16.0913 7.82978 15.7562 7.53656L11.7562 4.03656C11.134 3.49216 10.823 3.21999 10.4729 3.11646C10.1644 3.02523 9.83571 3.02523 9.52722 3.11646C9.17731 3.21994 8.86654 3.49186 8.24504 4.03567L8.24402 4.03656L4.24402 7.53656L4.24322 7.53726C3.90864 7.83002 3.74124 7.97649 3.62105 8.15354C3.51446 8.31057 3.4355 8.4847 3.38752 8.66832C3.33337 8.87552 3.33337 9.09817 3.33337 9.54346V14.1667C3.33337 14.9433 3.33337 15.3315 3.46024 15.6378C3.6294 16.0462 3.95405 16.3707 4.36243 16.5398C4.66871 16.6667 5.057 16.6667 5.83357 16.6667C6.61014 16.6667 6.99823 16.6667 7.30451 16.5398C7.71289 16.3707 8.03726 16.0462 8.20642 15.6378C8.33329 15.3315 8.33337 14.9432 8.33337 14.1667V13.3333C8.33337 12.4129 9.07957 11.6667 10 11.6667C10.9205 11.6667 11.6667 12.4129 11.6667 13.3333V14.1667C11.6667 14.9432 11.6667 15.3315 11.7936 15.6378C11.9627 16.0462 12.2874 16.3707 12.6958 16.5398C13.002 16.6667 13.3903 16.6667 14.1669 16.6667C14.9435 16.6667 15.3316 16.6667 15.6378 16.5398C16.0462 16.3707 16.3706 16.0462 16.5398 15.6378C16.6666 15.3315 16.6667 14.9433 16.6667 14.1667Z" stroke="white" stroke-width="1.5" stroke-linecap="round" stroke-linejoin="round"/>
</svg>
