<svg width="30" height="30" viewBox="0 0 30 30" fill="none" xmlns="http://www.w3.org/2000/svg">
<path d="M13.9288 22.4513C9.9025 22.0825 6.50875 19.6 3.75 15C6.75 10 10.5 7.5 15 7.5C19.5 7.5 23.25 10 26.25 15C25.9725 15.4625 25.6888 15.9025 25.4 16.3213M18.75 23.75L21.25 26.25L26.25 21.25M12.5 15C12.5 15.663 12.7634 16.2989 13.2322 16.7678C13.7011 17.2366 14.337 17.5 15 17.5C15.663 17.5 16.2989 17.2366 16.7678 16.7678C17.2366 16.2989 17.5 15.663 17.5 15C17.5 14.337 17.2366 13.7011 16.7678 13.2322C16.2989 12.7634 15.663 12.5 15 12.5C14.337 12.5 13.7011 12.7634 13.2322 13.2322C12.7634 13.7011 12.5 14.337 12.5 15Z" stroke="#F52F00" stroke-width="2.5" stroke-linecap="round" stroke-linejoin="round"/>
</svg>
