<svg width="30" height="30" viewBox="0 0 30 30" fill="none" xmlns="http://www.w3.org/2000/svg">
<path d="M27.5682 5.99647C27.8883 8.63802 26.5271 12.7074 21.1038 18.3245C21.0439 18.2629 20.9785 18.2 20.9071 18.1363C20.284 17.5796 19.2268 16.9711 17.4319 16.5224C15.6218 16.0698 14.5314 15.4326 13.4847 14.8196L13.4847 14.8196L13.4585 14.8043C12.6423 14.3263 11.8059 13.8365 10.702 13.5277C9.50035 13.1916 8.56051 13.0615 7.66571 13.0876C6.93647 13.1088 6.26306 13.2336 5.54273 13.4052C2.93144 9.96837 2.73021 7.19451 3.50906 5.24722C4.33346 3.18604 6.33722 1.82911 8.37334 1.48972C10.4761 1.13921 11.7741 1.50051 12.7094 2.12396C13.6888 2.77679 14.3614 3.76791 15.1267 4.91593L15.7508 5.85216L16.3748 4.91585C17.14 3.76776 17.8122 2.77671 18.7913 2.12391C19.7263 1.50052 21.024 1.1392 23.127 1.48972C25.1364 1.82463 27.2431 3.3135 27.5682 5.99647ZM9.75 20.25L9.21967 19.7197C8.59873 20.3406 8.48991 21.2383 8.82332 22.0385C9.15355 22.831 9.89631 23.5163 10.9715 23.9464C12.8652 24.7039 14.259 25.1119 15.4008 25.2157C16.5821 25.3231 17.471 25.103 18.3354 24.6708L26.9235 20.3768C26.9619 20.4949 27 20.6913 27 21C27 21.4809 26.7629 21.8639 26.4697 22.1572C26.3251 22.3018 26.1785 22.4119 26.0683 22.4853C26.0139 22.5216 25.9701 22.5478 25.9423 22.5637C25.9285 22.5716 25.9188 22.5768 25.9139 22.5795L25.9117 22.5806L25.9114 22.5808L25.9103 22.5813L25.8888 22.5921L25.8641 22.6069L18.3901 27.0913L18.385 27.0938C18.3642 27.1041 18.3328 27.1194 18.2921 27.139C18.2106 27.1784 18.0915 27.2351 17.9435 27.3034C17.647 27.4402 17.2375 27.6222 16.784 27.8036C16.3289 27.9857 15.8389 28.1633 15.3799 28.2945C14.9095 28.4289 14.5202 28.5 14.25 28.5C13.6134 28.5 12.9497 28.3385 12.4247 28.1635C12.1666 28.0775 11.9519 27.9915 11.8033 27.9278C11.7291 27.8961 11.6719 27.87 11.6345 27.8526C11.6159 27.8439 11.6022 27.8373 11.5939 27.8333L11.5855 27.8292L11.5854 27.8292L11.5852 27.8291L11.585 27.829L11.5846 27.8288L11.5844 27.8287L11.5657 27.8193L11.5454 27.8106L1.5 23.5055V19.0126C2.29083 18.0793 4.24632 16.5 6.75 16.5C8.1295 16.5 9.06433 16.668 9.79953 16.9143C10.5409 17.1627 11.1136 17.5005 11.798 17.9071C11.798 17.9071 11.798 17.9071 11.798 17.9071L11.8059 17.9118C12.2092 18.1514 12.6515 18.4142 13.1645 18.6708L13.1646 18.6708C14.6783 19.4277 16.1853 19.9355 16.9554 20.1924C17.3097 20.3897 17.321 20.6809 17.2354 20.8521C17.1666 20.9898 16.864 21.3308 15.9872 21.0385L11.4872 19.5385C10.8303 19.3195 10.3207 19.296 9.93104 19.3739C9.73704 19.4127 9.58183 19.475 9.46194 19.5417C9.40248 19.5747 9.353 19.6081 9.31272 19.6389C9.29262 19.6542 9.27488 19.6689 9.2594 19.6825C9.25166 19.6893 9.24449 19.6958 9.23787 19.7021L9.22836 19.7111L9.22391 19.7155L9.22177 19.7176L9.22071 19.7186C9.22019 19.7192 9.21967 19.7197 9.75 20.25Z" stroke="#F52F00" stroke-width="1.5"/>
</svg>
