<svg width="156" height="136" viewBox="0 0 156 136" fill="none" xmlns="http://www.w3.org/2000/svg">
<path d="M81.5086 33.3373L81.3001 33.2751C80.2474 32.9611 79.6473 31.854 79.9615 30.8006C83.0389 20.4595 92.6229 12.8661 104.028 12.8661C105.126 12.8661 106.018 13.7571 106.018 14.8558C106.018 15.9544 105.126 16.8455 104.028 16.8455C94.748 16.8455 86.4188 23.0513 83.7749 31.9347C83.7748 31.9347 83.7748 31.9348 83.7748 31.9349L83.4504 31.8383C83.1921 32.7111 82.2745 33.2124 81.397 32.9505L81.5086 33.3373ZM81.5086 33.3373L81.5177 33.3269L81.5086 33.3373Z" fill="#F52F00" stroke="#2D2C2C" stroke-width="0.676969"/>
<path d="M127.143 95.7651H117.236C116.325 95.7651 115.585 95.0256 115.585 94.1138C115.585 93.2022 116.325 92.4626 117.236 92.4626H127.143C140.8 92.4626 151.911 81.3512 151.911 67.6947C151.911 54.0382 140.8 42.9267 127.143 42.9267H126.905C126.426 42.9267 125.971 42.7192 125.657 42.3571C125.344 41.995 125.202 41.5149 125.27 41.0408C125.418 40.0124 125.492 38.9792 125.492 37.9732C125.492 26.1377 115.862 16.5075 104.026 16.5075C99.422 16.5075 95.0309 17.9464 91.3274 20.6696C90.5136 21.2676 89.3578 21.0023 88.8872 20.107C78.3986 0.134715 51.0035 -2.54737 36.8006 14.8268C30.8174 22.1463 28.4666 31.6678 30.3503 40.9477C30.5579 41.9727 29.7736 42.928 28.7322 42.928H28.0705C14.414 42.928 3.30255 54.0395 3.30255 67.696C3.30255 81.3524 14.414 92.4639 28.0705 92.4639H37.9776C38.8892 92.4639 39.6288 93.2034 39.6288 94.1151C39.6288 95.0268 38.8893 95.7663 37.9776 95.7663H28.0705C12.5928 95.7663 0 83.1736 0 67.6958C0 52.6523 11.8956 40.3343 26.7743 39.6549C25.3767 30.0271 28.0493 20.3157 34.2435 12.7369C49.4498 -5.86616 78.5916 -3.78101 90.9105 16.9628C94.8405 14.4989 99.3375 13.2064 104.026 13.2064C118.365 13.2064 129.728 25.4112 128.734 39.6703C143.475 40.4971 155.213 52.7501 155.213 67.6946C155.213 83.1736 142.62 95.7651 127.143 95.7651L127.143 95.7651Z" fill="#F52F00"/>
<path d="M35.7665 93.1814C35.7665 116.131 54.4366 134.8 77.3854 134.8C100.335 134.8 119.004 116.13 119.004 93.1814C119.004 70.2322 100.335 51.5625 77.3854 51.5625C54.4363 51.5625 35.7665 70.2325 35.7665 93.1814ZM39.7466 93.1814C39.7466 72.428 56.6317 55.5426 77.3854 55.5426C98.1388 55.5426 115.024 72.4277 115.024 93.1814C115.024 113.935 98.1388 130.82 77.3854 130.82C56.632 130.82 39.7466 113.935 39.7466 93.1814Z" fill="#F52F00" stroke="#2D2C2C" stroke-width="0.676969"/>
<path d="M76.5927 109.799C76.5927 110.654 77.2856 111.347 78.14 111.347C78.9943 111.347 79.6874 110.655 79.6874 109.799V78.3686C79.6874 77.5142 78.9944 76.8212 78.14 76.8212C77.2856 76.8212 76.5927 77.5142 76.5927 78.3686V109.799Z" fill="#F52F00" stroke="#F52F00" stroke-width="0.676969"/>
<path d="M78.14 80.5599L69.5635 89.1364C68.9597 89.7413 67.9793 89.741 67.3749 89.1366C66.7704 88.5321 66.7704 87.5527 67.3749 86.9482L77.0455 77.2776L78.14 80.5599ZM78.14 80.5599L86.7167 89.1366C87.0184 89.4383 87.4156 89.5897 87.8107 89.5898L78.14 80.5599ZM79.2341 77.2774C78.6298 76.6731 77.6496 76.6727 77.0457 77.2774L87.8108 89.5898C88.2053 89.5897 88.6027 89.4397 88.9049 89.1366C89.5094 88.5321 89.5094 87.5527 88.9049 86.9482L79.2341 77.2774Z" fill="#F52F00" stroke="#F52F00" stroke-width="0.676969"/>
</svg>
