<svg width="20" height="21" viewBox="0 0 20 21" fill="none" xmlns="http://www.w3.org/2000/svg">
<path d="M6.66671 3.65854V16.9919M13.3334 3.65854V16.9919M3.33337 6.99187H6.66671M3.33337 13.6585H6.66671M3.33337 10.3252H16.6667M13.3334 6.99187H16.6667M13.3334 13.6585H16.6667M3.33337 5.32521C3.33337 4.88318 3.50897 4.45925 3.82153 4.14669C4.13409 3.83413 4.55801 3.65854 5.00004 3.65854H15C15.4421 3.65854 15.866 3.83413 16.1786 4.14669C16.4911 4.45925 16.6667 4.88318 16.6667 5.32521V15.3252C16.6667 15.7672 16.4911 16.1912 16.1786 16.5037C15.866 16.8163 15.4421 16.9919 15 16.9919H5.00004C4.55801 16.9919 4.13409 16.8163 3.82153 16.5037C3.50897 16.1912 3.33337 15.7672 3.33337 15.3252V5.32521Z" stroke="white" stroke-width="1.5" stroke-linecap="round" stroke-linejoin="round"/>
</svg>
